<?xml version="1.0" encoding="UTF-8"?>
<svg width="1066px" height="1095px" viewBox="0 0 1066 1095" version="1.1" xmlns="http://www.w3.org/2000/svg" xmlns:xlink="http://www.w3.org/1999/xlink">
    <!-- Generator: Sketch 49.3 (51167) - http://www.bohemiancoding.com/sketch -->
    <title>Group 6</title>
    <desc>Created with Sketch.</desc>
    <defs></defs>
    <g id="@tomgraham.me" stroke="none" stroke-width="1" fill="none" fill-rule="evenodd" opacity="0.300000012">
        <g id="Group-6" transform="translate(-18.000000, -17.000000)">
            <path d="M814.62771,237.801717 L814.62771,237.755579 L820.62771,237.755579 L979.62771,237.755579 L985.62771,237.755579 L985.62771,237.801717 C984.205461,237.90073 983.444055,238.15754 982.697173,238.556977 C981.719395,239.079898 980.952029,239.847264 980.429108,240.825042 C980.029671,241.571924 979.772861,242.33333 979.673848,243.755579 L979.520575,243.755579 C979.24917,247.706152 978.466553,250.222911 977.223515,252.54719 C975.654752,255.480524 973.352654,257.782621 970.419321,259.351385 C967.485988,260.920148 964.246082,261.755579 958.20439,261.755579 L842.05103,261.755579 C836.009337,261.755579 832.769432,260.920148 829.836098,259.351385 C826.902765,257.782621 824.600668,255.480524 823.031904,252.54719 C821.788866,250.222911 821.006249,247.706152 820.734845,243.755579 L820.581571,243.755579 C820.482558,242.33333 820.225749,241.571924 819.826312,240.825042 C819.30339,239.847264 818.536025,239.079898 817.558247,238.556977 C816.811364,238.15754 816.049959,237.90073 814.62771,237.801717 Z M813.100098,237.755579 L808.62771,237.755579 L796.085988,237.755579 C782.713207,237.755579 777.863913,239.147963 772.975024,241.762569 C768.086135,244.377176 764.249307,248.214004 761.6347,253.102893 C759.020094,257.991782 757.62771,262.841076 757.62771,276.213857 L757.62771,811.297301 C757.62771,824.670082 759.020094,829.519376 761.6347,834.408264 C764.249307,839.297153 768.086135,843.133982 772.975024,845.748588 C777.863913,848.363195 782.713207,849.755579 796.085988,849.755579 L1004.16943,849.755579 C1017.54221,849.755579 1022.39151,848.363195 1027.2804,845.748588 C1032.16928,843.133982 1036.00611,839.297153 1038.62072,834.408264 C1041.23533,829.519376 1042.62771,824.670082 1042.62771,811.297301 L1042.62771,276.213857 C1042.62771,262.841076 1041.23533,257.991782 1038.62072,253.102893 C1036.00611,248.214004 1032.16928,244.377176 1027.2804,241.762569 C1022.39151,239.147963 1017.54221,237.755579 1004.16943,237.755579 L991.62771,237.755579 L987.155321,237.755579 L813.100098,237.755579 Z M801.160954,219.755579 L999.094465,219.755579 C1020.49091,219.755579 1028.24978,221.983394 1036.07201,226.166764 C1043.89423,230.350134 1050.03315,236.48906 1054.21652,244.311282 C1058.3999,252.133504 1060.62771,259.892374 1060.62771,281.288824 L1060.62771,806.222334 C1060.62771,827.618784 1058.3999,835.377654 1054.21652,843.199876 C1050.03315,851.022098 1043.89423,857.161024 1036.07201,861.344394 C1028.24978,865.527764 1020.49091,867.755579 999.094465,867.755579 L801.160954,867.755579 C779.764505,867.755579 772.005635,865.527764 764.183413,861.344394 C756.361191,857.161024 750.222265,851.022098 746.038895,843.199876 C741.855524,835.377654 739.62771,827.618784 739.62771,806.222334 L739.62771,281.288824 C739.62771,259.892374 741.855524,252.133504 746.038895,244.311282 C750.222265,236.48906 756.361191,230.350134 764.183413,226.166764 C772.005635,221.983394 779.764505,219.755579 801.160954,219.755579 Z" id="Combined-Shape" fill="#D9DBEB" opacity="0.5" transform="translate(900.127710, 543.755579) rotate(-5.000000) translate(-900.127710, -543.755579) "></path>
            <path d="M235.63889,264.261034 L312.883178,264.261034 C330.748378,264.261034 337.226731,266.121172 343.757981,269.614123 C350.289231,273.107073 355.414994,278.232837 358.907945,284.764087 C362.400896,291.295337 364.261034,297.77369 364.261034,315.63889 L364.261034,392.883178 C364.261034,410.748378 362.400896,417.226731 358.907945,423.757981 C355.414994,430.289231 350.289231,435.414994 343.757981,438.907945 C337.226731,442.400896 330.748378,444.261034 312.883178,444.261034 L235.63889,444.261034 C217.77369,444.261034 211.295337,442.400896 204.764087,438.907945 C198.232837,435.414994 193.107073,430.289231 189.614123,423.757981 C186.121172,417.226731 184.261034,410.748378 184.261034,392.883178 L184.261034,315.63889 C184.261034,297.77369 186.121172,291.295337 189.614123,284.764087 C193.107073,278.232837 198.232837,273.107073 204.764087,269.614123 C211.295337,266.121172 217.77369,264.261034 235.63889,264.261034 Z" id="Smooth-Corners" fill="#D9DBEB" opacity="0.5" transform="translate(274.261034, 354.261034) rotate(10.000000) translate(-274.261034, -354.261034) "></path>
            <g id="Group-3" transform="translate(117.419870, 707.419870) rotate(-12.000000) translate(-117.419870, -707.419870) translate(18.419870, 608.419870)" fill="#D9DBEB" opacity="0.5">
                <path d="M83.47235,90.75 C83.8159087,89.5594128 84,88.3012048 84,87 C84,77.0588745 92.0588745,69 102,69 C111.941125,69 120,77.0588745 120,87 C120,96.9411255 111.941125,105 102,105 C94.5441559,105 88.5,111.044156 88.5,118.5 C88.5,125.955844 94.5441559,132 102,132 C126.852814,132 147,111.852814 147,87 C147,62.1471863 126.852814,42 102,42 C77.1471863,42 57,62.1471863 57,87 C57,88.3012048 57.1840913,89.5594128 57.52765,90.75 C57.1840913,91.9405872 57,93.1987952 57,94.5 L57,148.5 C57,155.955844 63.0441559,162 70.5,162 C77.9558441,162 84,155.955844 84,148.5 L84,94.5 C84,93.1987952 83.8159087,91.9405872 83.47235,90.75 Z M99,198 C44.3238098,198 8.52651283e-14,153.67619 8.52651283e-14,99 C8.52651283e-14,44.3238098 44.3238098,0 99,0 C153.67619,0 198,44.3238098 198,99 C198,153.67619 153.67619,198 99,198 Z" id="Combined-Shape"></path>
            </g>
            <polygon id="Rectangle-5" fill="#D9DBEB" opacity="0.5" transform="translate(517.566731, 656.697832) rotate(13.000000) translate(-517.566731, -656.697832) " points="459.066731 568.197832 517.566731 562.197832 576.066731 568.197832 622.566731 632.697832 517.566731 751.197832 412.566731 632.697832"></polygon>
            <path d="M516.045584,908.045584 L714.045584,908.045584 L714.045584,1106.04558 L516.045584,1106.04558 L516.045584,908.045584 Z M606.297862,1040.77892 L621.7838,1040.77892 L592.6338,958.623741 L576.066124,958.623741 L546.916124,1040.77892 L562.06046,1040.77892 L569.063292,1019.54269 L599.29503,1019.54269 L606.297862,1040.77892 Z M583.979894,973.141808 L584.378429,973.141808 L595.822081,1008.2129 L572.479308,1008.2129 L583.979894,973.141808 Z M663.309616,1022.73097 C661.772409,1027.74112 656.762253,1031.04327 650.157956,1031.04327 C640.87778,1031.04327 634.956687,1024.55284 634.956687,1014.87413 L634.956687,1014.02013 L677.14448,1014.02013 L677.14448,1009.40851 C677.14448,991.07589 666.440964,979.176769 649.303952,979.176769 C631.882273,979.176769 620.837155,991.759093 620.837155,1010.83185 C620.837155,1030.0754 631.768405,1041.97452 649.873288,1041.97452 C664.16362,1041.97452 674.753269,1034.11769 676.575144,1022.73097 L663.309616,1022.73097 Z M649.360886,990.164952 C657.50239,990.164952 662.968015,996.142979 663.252683,1004.68302 L635.070554,1004.68302 C635.63989,996.256847 641.390183,990.164952 649.360886,990.164952 Z" id="Combined-Shape" fill="#D9DBEB" opacity="0.5" transform="translate(615.045584, 1007.045584) rotate(-3.000000) translate(-615.045584, -1007.045584) "></path>
            <path d="M560.50846,20.3008868 C648.840811,80.5907605 620.262754,146.967553 620.262754,146.967553 C620.262754,146.967553 645.376784,175.373248 635.273605,200.300887 C635.273605,200.300887 624.881527,182.909536 607.561395,182.909536 C590.818637,182.909536 581.003931,200.300887 547.229728,200.300887 C472.176109,200.300887 436.669786,137.402364 436.669786,137.402364 C504.248682,182.116344 550.405068,150.445824 550.405068,150.445824 C519.918993,132.66462 455.144664,47.8371745 455.144664,47.8371745 C511.604221,96.0576841 535.971803,108.706796 535.971803,108.706796 C521.384386,96.646209 480.547382,37.6922377 480.547382,37.6922377 C513.222486,70.8887695 578.117278,117.11249 578.117278,117.11249 C596.627762,66.0172216 560.50846,20.3008868 560.50846,20.3008868 Z" id="Shape" fill="#D9DBEB" fill-rule="nonzero" opacity="0.5" transform="translate(537.169786, 110.300887) rotate(-13.000000) translate(-537.169786, -110.300887) "></path>
            <g id="Group-4" transform="translate(235.000000, 1010.000000) rotate(15.000000) translate(-235.000000, -1010.000000) translate(136.000000, 911.000000)">
                <circle id="Combined-Shape" fill="#D9DBEB" opacity="0.200000003" cx="115.465116" cy="82.4651163" r="73.4651163"></circle>
                <path d="M99,198 C153.67619,198 198,153.67619 198,99 C198,84.0626715 195.27907,52.5348837 181.255814,55.8837209 C179.436839,56.3181029 167.651163,63 165.55814,87.6976744 C162.303782,126.099096 141.476742,182.060092 86.0232558,185.023256 C67.0862481,186.035157 23.0232558,166.186047 16.744186,126.418605 C9.13051873,78.1987116 46.9166199,57.8521233 49.3953488,55.8837209 C84.9767442,27.627907 143.372093,37.4651163 140.023256,13.6046512 C138.578941,3.31391003 116.240788,1.13686838e-13 99,1.13686838e-13 C44.3238098,1.13686838e-13 0,44.3238098 0,99 C0,153.67619 44.3238098,198 99,198 Z" id="Oval-4" fill="#E8E9F3"></path>
            </g>
        </g>
    </g>
</svg>