<?xml version="1.0" encoding="UTF-8"?>
<svg width="22px" height="28px" viewBox="0 0 22 28" version="1.1" xmlns="http://www.w3.org/2000/svg" xmlns:xlink="http://www.w3.org/1999/xlink">
    <!-- Generator: Sketch 50.2 (55047) - http://www.bohemiancoding.com/sketch -->
    <title>cv</title>
    <desc>Created with Sketch.</desc>
    <defs></defs>
    <g id="@tomgraham.me" stroke="none" stroke-width="1" fill="none" fill-rule="evenodd">
        <g id="Desktop-HD" transform="translate(-541.000000, -840.000000)">
            <g id="Social" transform="translate(184.000000, 823.000000)">
                <g id="Group" transform="translate(336.000000, 0.000000)">
                    <g id="cv" transform="translate(22.000000, 18.000000)">
                        <rect id="Rectangle-13" fill="#FAFBFD" x="2" y="2" width="16" height="22"></rect>
                        <path d="M2,0 L18,0 C19.1045695,-2.02906125e-16 20,0.8954305 20,2 L20,24 C20,25.1045695 19.1045695,26 18,26 L2,26 C0.8954305,26 1.3527075e-16,25.1045695 0,24 L0,2 C-1.3527075e-16,0.8954305 0.8954305,2.02906125e-16 2,0 Z M6,12 L14,12 C14,9.37476923 11.3333333,10.1252308 11,8.99953846 L11,8.24976923 C11.15,8.166 11.5786667,7.59138462 11.624,7.14276923 C11.742,7.13238462 11.9273333,7.01053846 11.982,6.52938462 C12.0113333,6.27115385 11.8946667,6.12576923 11.824,6.08007692 C11.824,6.08007692 12,5.70415385 12,5.25 C12,4.33892308 11.682,3.56215385 11,3.56215385 C11,3.56215385 10.7633333,3 10,3 C8.586,3 8,4.02046154 8,5.25069231 C8,5.664 8.176,6.08076923 8.176,6.08076923 C8.10533333,6.12646154 7.98866667,6.27184615 8.018,6.53007692 C8.07266667,7.01123077 8.258,7.13307692 8.376,7.14346154 C8.42133333,7.59207692 8.85,8.16669231 9,8.25046154 L9,9.00023077 C8.66666667,10.1252308 6,9.37476923 6,12 Z M4,15 L4,17 L16,17 L16,15 L4,15 Z M4,19 L4,21 L13,21 L13,19 L4,19 Z" stroke-opacity="0.04" stroke="#000000" fill="#858D99"></path>
                    </g>
                </g>
            </g>
        </g>
    </g>
</svg>