<?xml version="1.0" encoding="UTF-8"?>
<svg width="20px" height="28px" viewBox="0 0 20 28" version="1.1" xmlns="http://www.w3.org/2000/svg" xmlns:xlink="http://www.w3.org/1999/xlink">
    <!-- Generator: Sketch 50.2 (55047) - http://www.bohemiancoding.com/sketch -->
    <title>Combined Shape</title>
    <desc>Created with Sketch.</desc>
    <defs></defs>
    <g id="@tomgraham.me" stroke="none" stroke-width="1" fill="none" fill-rule="evenodd" stroke-opacity="0.04">
        <g id="Desktop-HD" transform="translate(-626.000000, -841.000000)" fill="#858D99" stroke="#000000">
            <g id="Social" transform="translate(184.000000, 823.000000)">
                <g id="Group" transform="translate(420.000000, 0.000000)">
                    <path d="M25,19 L39,19 C40.1045695,19 41,19.8954305 41,21 L41,43 C41,44.1045695 40.1045695,45 39,45 L25,45 C23.8954305,45 23,44.1045695 23,43 L23,21 C23,19.8954305 23.8954305,19 25,19 Z M28,32 L36,32 C36,29.3747692 33.3333333,30.1252308 33,28.9995385 L33,28.2497692 C33.15,28.166 33.5786667,27.5913846 33.624,27.1427692 C33.742,27.1323846 33.9273333,27.0105385 33.982,26.5293846 C34.0113333,26.2711538 33.8946667,26.1257692 33.824,26.0800769 C33.824,26.0800769 34,25.7041538 34,25.25 C34,24.3389231 33.682,23.5621538 33,23.5621538 C33,23.5621538 32.7633333,23 32,23 C30.586,23 30,24.0204615 30,25.2506923 C30,25.664 30.176,26.0807692 30.176,26.0807692 C30.1053333,26.1264615 29.9886667,26.2718462 30.018,26.5300769 C30.0726667,27.0112308 30.258,27.1330769 30.376,27.1434615 C30.4213333,27.5920769 30.85,28.1666923 31,28.2504615 L31,29.0002308 C30.6666667,30.1252308 28,29.3747692 28,32 Z M26,34 L26,36 L38,36 L38,34 L26,34 Z M26,38 L26,40 L35,40 L35,38 L26,38 Z" id="Combined-Shape"></path>
                </g>
            </g>
        </g>
    </g>
</svg>