<?xml version="1.0" encoding="UTF-8"?>
<svg width="26px" height="25px" viewBox="0 0 26 25" version="1.1" xmlns="http://www.w3.org/2000/svg" xmlns:xlink="http://www.w3.org/1999/xlink">
    <!-- Generator: Sketch 49.3 (51167) - http://www.bohemiancoding.com/sketch -->
    <title>Dribbbble</title>
    <desc>Created with Sketch.</desc>
    <defs></defs>
    <g id="@tomgraham.me" stroke="none" stroke-width="1" fill="none" fill-rule="evenodd">
        <g id="Desktop-HD" transform="translate(-371.000000, -843.000000)" fill="#EA4C89" fill-rule="nonzero">
            <g id="Group" transform="translate(352.000000, 823.000000)">
                <g id="dribbble-with-circle" transform="translate(19.000000, 19.000000)">
                    <path d="M13.7191479,12.9502468 C13.8104245,12.9170553 13.907233,12.8921617 14.0040415,12.8645022 C13.774467,12.3528 13.5199989,11.8217362 13.2323393,11.249183 C8.03233921,12.7898213 3.05361569,12.8036511 2.16574333,12.7898213 C2.15744545,12.8589702 2.15744545,12.9308851 2.15744545,13.0000341 C2.15744545,15.6138639 3.09787101,18.1253533 4.80723275,20.097481 C5.37702,19.1791832 8.3974456,14.6734384 13.7191479,12.9502468 Z M6.42531789,21.6104598 C8.33106262,23.0708854 10.6074457,23.8425875 12.9999989,23.8425875 C14.4299989,23.8425875 15.8185096,23.5659918 17.1323394,23.0266301 C16.9497862,21.9728002 16.316382,18.7642895 14.8587223,14.9445022 C8.99212647,17.0189703 6.7765945,20.9245023 6.42531789,21.6104598 Z M20.0670203,4.77684239 C18.1004246,3.08684235 15.594467,2.15748062 12.9999989,2.15748062 C12.214467,2.15748062 11.4261691,2.24322531 10.648935,2.41748063 C11.2159563,3.17811895 12.9502117,5.58726794 14.5793606,8.56620418 C18.1280841,7.20258713 19.7323395,5.23599133 20.0670203,4.77684239 Z M12.1840414,9.30471484 C10.5023393,6.33960838 8.75148816,3.8972679 8.27021155,3.24450193 C5.31893489,4.67450196 3.14765824,7.41003394 2.42574333,10.596417 L2.47276461,10.596417 C3.59574336,10.596417 7.58702005,10.5051404 12.1840414,9.30471484 Z M17.1876586,14.371949 C18.4738288,17.9483321 19.0657437,20.9189704 19.2344671,21.8704598 C21.5910629,20.2108853 23.2008502,17.6634384 23.6848928,14.8366299 C23.2036162,14.6900341 21.4665948,14.2253532 19.2814884,14.2253532 C18.5678714,14.2253532 17.8625522,14.2751405 17.1876586,14.371949 Z M13,0 C5.82020833,0 0,5.82020833 0,13 C0,20.1797917 5.82020833,26 13,26 C20.1797917,26 26,20.1797917 26,13 C26,5.82020833 20.1797917,0 13,0 Z M12.9972344,25.9889368 C5.82787248,25.9889368 3.90798505e-14,20.1610643 3.90798505e-14,12.9972344 C3.90798505e-14,5.82787248 5.82787248,-1.77635684e-14 12.9972344,-1.77635684e-14 C20.1638303,-1.77635684e-14 25.9917027,5.83063844 25.9917027,12.9972344 C25.9917027,20.1610643 20.1638303,25.9889368 12.9972344,25.9889368 Z M15.5502117,10.4387574 C15.79085,10.9366298 16.0148926,11.4262042 16.2195734,11.9074809 C16.2831905,12.0651404 16.3523394,12.2200341 16.4159564,12.3776936 C17.1821267,12.286417 18.0008501,12.2421617 18.855531,12.2421617 C21.2176587,12.2421617 23.1787225,12.5879064 23.8370204,12.7179064 C23.7761694,10.3668425 22.9436162,8.08216162 21.4804246,6.24556583 C21.0378714,6.81535307 19.2178714,8.90918291 15.5502117,10.4387574 Z" id="Dribbbble"></path>
                </g>
            </g>
        </g>
    </g>
</svg>