<?xml version="1.0" encoding="UTF-8"?>
<svg width="26px" height="26px" viewBox="0 0 26 26" version="1.1" xmlns="http://www.w3.org/2000/svg" xmlns:xlink="http://www.w3.org/1999/xlink">
    <!-- Generator: Sketch 50.2 (55047) - http://www.bohemiancoding.com/sketch -->
    <title>Dribbbble</title>
    <desc>Created with Sketch.</desc>
    <defs></defs>
    <g id="@tomgraham.me" stroke="none" stroke-width="1" fill="none" fill-rule="evenodd">
        <g id="Desktop-HD" transform="translate(-203.000000, -842.000000)">
            <g id="Social" transform="translate(184.000000, 823.000000)">
                <g id="Group">
                    <g id="Dribbbble" transform="translate(19.000000, 19.000000)">
                        <rect id="Rectangle-12" fill="#F5F5F5" x="0.5" y="0.5" width="25" height="25" rx="12.5"></rect>
                        <path d="M13.8324828,12.942602 C13.9377392,12.9043367 14.0493748,12.8756378 14.1610105,12.84375 C13.8962746,12.2538265 13.6028324,11.6415816 13.2711151,10.9815051 C7.27468742,12.7576531 1.53342689,12.7735969 0.509568768,12.7576531 C0.5,12.8373724 0.5,12.9202806 0.5,13 C0.5,16.0133929 1.58446032,18.908801 3.55562644,21.182398 C4.21268181,20.1237245 7.69571319,14.9292092 13.8324828,12.942602 Z M5.42153611,22.9266582 C7.61916305,24.6103316 10.2441949,25.5 13.0031896,25.5 C14.6522072,25.5 16.253381,25.1811224 17.7684358,24.5593112 C17.5579229,23.3443878 16.827507,19.6454082 15.1465935,15.2417092 C8.38147487,17.6332908 5.82661393,22.1358418 5.42153611,22.9266582 Z M21.1525899,3.51977041 C18.884792,1.57142857 15.9950242,0.5 13.0031896,0.5 C12.0973463,0.5 11.1883133,0.598852041 10.2920388,0.799744898 C10.9459046,1.67665816 12.945777,4.45408163 14.824445,7.88839286 C18.9166879,6.31632653 20.7666497,4.04910714 21.1525899,3.51977041 Z M12.0622608,8.73979592 C10.1229906,5.32142857 8.10398061,2.5057398 7.54899209,1.75318878 C4.14570043,3.40178571 1.64187293,6.55548469 0.809390151,10.2289541 L0.863613167,10.2289541 C2.15858637,10.2289541 6.76116356,10.1237245 12.0622608,8.73979592 Z M17.8322276,14.5816327 C19.3153866,18.7047194 19.9979587,22.1294643 20.1925236,23.2264031 C22.9100536,21.3131378 24.7663945,18.3762755 25.3245726,15.1173469 C24.7695841,14.9483418 22.7665221,14.4126276 20.2467466,14.4126276 C19.4238326,14.4126276 18.6104874,14.4700255 17.8322276,14.5816327 Z M15.9439908,10.0471939 C16.2214851,10.6211735 16.4798418,11.1855867 16.7158714,11.7404337 C16.7892319,11.9221939 16.8689717,12.1007653 16.9423322,12.2825255 C17.8258484,12.1772959 18.7699668,12.1262755 19.7555499,12.1262755 C22.479459,12.1262755 24.7408778,12.5248724 25.5,12.6747449 C25.429829,9.96428571 24.4697627,7.33035714 22.78247,5.2130102 C22.2721357,5.86989796 20.1733861,8.28380102 15.9439908,10.0471939 Z" stroke-opacity="0.04" stroke="#000000" fill="#EA4C89" fill-rule="nonzero" stroke-linecap="round" stroke-linejoin="round"></path>
                    </g>
                </g>
            </g>
        </g>
    </g>
</svg>