<?xml version="1.0" encoding="UTF-8"?>
<svg width="24px" height="16px" viewBox="0 0 24 16" version="1.1" xmlns="http://www.w3.org/2000/svg" xmlns:xlink="http://www.w3.org/1999/xlink">
    <!-- Generator: Sketch 49.3 (51167) - http://www.bohemiancoding.com/sketch -->
    <title>Email</title>
    <desc>Created with Sketch.</desc>
    <defs></defs>
    <g id="@tomgraham.me" stroke="none" stroke-width="1" fill="none" fill-rule="evenodd">
        <g id="Desktop-HD" transform="translate(-288.000000, -847.000000)" fill="#E67EC1" fill-rule="nonzero">
            <g id="Group" transform="translate(268.000000, 823.000000)">
                <path d="M33.0191429,33.2675 C32.4482857,33.7875 31.5517143,33.7875 30.98,33.2675 L21.3174286,24.5 L42.6825714,24.5 L33.0191429,33.2675 Z M26.7765714,31.7333333 L20,38.3216667 L20,25.5841667 L26.7765714,31.7333333 Z M37.2234286,31.7333333 L44,25.5841667 L44,38.3216667 L37.2234286,31.7333333 Z M35.9694286,32.8708333 L42.788,39.5 L21.212,39.5 L28.0288571,32.8708333 L29.8091429,34.4858333 C30.4237143,35.0433333 31.2114286,35.3216667 31.9991429,35.3216667 C32.7868571,35.3216667 33.5745714,35.0433333 34.1891429,34.4858333 L35.9694286,32.8708333 Z" id="Email"></path>
            </g>
        </g>
    </g>
</svg>