<?xml version="1.0" encoding="UTF-8"?>
<svg width="28px" height="18px" viewBox="0 0 28 18" version="1.1" xmlns="http://www.w3.org/2000/svg" xmlns:xlink="http://www.w3.org/1999/xlink">
    <!-- Generator: Sketch 50.2 (55047) - http://www.bohemiancoding.com/sketch -->
    <title>Email</title>
    <desc>Created with Sketch.</desc>
    <defs></defs>
    <g id="@tomgraham.me" stroke="none" stroke-width="1" fill="none" fill-rule="evenodd">
        <g id="Desktop-HD" transform="translate(-454.000000, -846.000000)">
            <g id="Social" transform="translate(184.000000, 823.000000)">
                <g id="Group" transform="translate(252.000000, 0.000000)">
                    <g id="Email" transform="translate(19.000000, 24.000000)">
                        <rect id="Rectangle-11" fill="#FFFFFF" x="0" y="0" width="26" height="16" rx="1.08333333"></rect>
                        <path d="M14.1040714,9.352 C13.4856429,9.90666667 12.5143571,9.90666667 11.895,9.352 L1.42721429,0 L24.5727857,0 L14.1040714,9.352 Z M7.34128571,7.71555556 L0,14.7431111 L0,1.15644444 L7.34128571,7.71555556 Z M18.6587143,7.71555556 L26,1.15644444 L26,14.7431111 L18.6587143,7.71555556 Z M17.3002143,8.92888889 L24.687,16 L1.313,16 L8.69792857,8.92888889 L10.6265714,10.6515556 C11.2923571,11.2462222 12.1457143,11.5431111 12.9990714,11.5431111 C13.8524286,11.5431111 14.7057857,11.2462222 15.3715714,10.6515556 L17.3002143,8.92888889 Z" stroke-opacity="0.04" stroke="#000000" fill="#897EE6" fill-rule="nonzero" stroke-linecap="round" stroke-linejoin="round"></path>
                    </g>
                </g>
            </g>
        </g>
    </g>
</svg>