<?xml version="1.0" encoding="UTF-8"?>
<svg width="24px" height="24px" viewBox="0 0 24 24" version="1.1" xmlns="http://www.w3.org/2000/svg" xmlns:xlink="http://www.w3.org/1999/xlink">
    <!-- Generator: Sketch 49.3 (51167) - http://www.bohemiancoding.com/sketch -->
    <title>Instagram</title>
    <desc>Created with Sketch.</desc>
    <defs>
        <radialGradient cx="0%" cy="100%" fx="0%" fy="100%" r="180.321532%" gradientTransform="translate(0.000000,1.000000),rotate(-45.858773),scale(1.000000,1.764781),translate(-0.000000,-1.000000)" id="radialGradient-1">
            <stop stop-color="#BD61DA" offset="0%"></stop>
            <stop stop-color="#577DFF" offset="100%"></stop>
        </radialGradient>
    </defs>
    <g id="@tomgraham.me" stroke="none" stroke-width="1" fill="none" fill-rule="evenodd">
        <g id="Desktop-HD" transform="translate(-456.000000, -843.000000)" fill="url(#radialGradient-1)" fill-rule="nonzero">
            <g id="Group" transform="translate(436.000000, 823.000000)">
                <path d="M27.05399,20.0759624 C28.3334962,20.0175781 28.7420248,20.00379 32,20.00379 C35.2579986,20.00379 35.6664805,20.0175781 36.94601,20.0759624 C38.222889,20.1342305 39.0949129,20.3370067 39.85798,20.6335795 C40.6468562,20.9401271 41.3158481,21.3503067 41.9827938,22.017229 C42.6496929,22.6841519 43.059849,23.3531667 43.3664433,24.14202 C43.6629924,24.9050876 43.8657919,25.7771114 43.9240138,27.05399 C43.9824214,28.3334962 43.9962329,28.7420248 43.9962329,32 C43.9962329,35.2579986 43.9824214,35.6664805 43.9240138,36.94601 C43.8657924,38.222889 43.6629929,39.0949129 43.3664433,39.85798 C43.059849,40.6468562 42.6496929,41.3158481 41.9827938,41.9827938 C41.3158481,42.6496929 40.6468567,43.059849 39.85798,43.3664433 C39.0949124,43.6629924 38.2228886,43.8657919 36.94601,43.9240138 C35.6664805,43.9824214 35.2579986,43.9962329 32,43.9962329 C28.7420248,43.9962329 28.3334962,43.9824214 27.05399,43.9240138 C25.777111,43.8657924 24.9050871,43.6629929 24.14202,43.3664433 C23.3531667,43.059849 22.6841514,42.6496929 22.017229,41.9827938 C21.3503067,41.3158481 20.9401271,40.64681 20.6335795,39.85798 C20.3370067,39.0949124 20.1342305,38.2228886 20.0759624,36.94601 C20.0175781,35.6664805 20.00379,35.2579986 20.00379,32 C20.00379,28.7420014 20.0175781,28.3334962 20.0759629,27.05399 C20.134231,25.777111 20.3370071,24.9050871 20.63358,24.14202 C20.9401276,23.3531667 21.3503062,22.6841514 22.017229,22.017229 C22.6841519,21.3503067 23.3531667,20.9401271 24.14202,20.6335795 C24.9050876,20.3370067 25.7771114,20.1342305 27.05399,20.0759624 Z M32,25.8397738 C28.5977957,25.8397738 25.8397738,28.5977957 25.8397738,32 C25.8397738,35.4022043 28.5977957,38.1602029 32,38.1602029 C35.4022043,38.1602029 38.1602029,35.4022043 38.1602029,32 C38.1602029,28.5977957 35.4022043,25.8397738 32,25.8397738 Z M32,35.9987443 C29.7915505,35.9987443 28.0012557,34.2084262 28.0012557,32 C28.0012557,29.7915505 29.7915505,28.0012557 32,28.0012557 C34.2084262,28.0012557 35.9987443,29.7915505 35.9987443,32 C35.9987443,34.2084262 34.2084262,35.9987443 32,35.9987443 Z M38.4035995,27.0359467 C39.1986389,27.0359467 39.8431457,26.3914399 39.8431457,25.5964005 C39.8431457,24.8013611 39.1986389,24.1568543 38.4035995,24.1568543 C37.6085601,24.1568543 36.9640533,24.8013611 36.9640533,25.5964005 C36.9640533,26.3914399 37.6085601,27.0359467 38.4035995,27.0359467 Z" id="Instagram"></path>
            </g>
        </g>
    </g>
</svg>