<?xml version="1.0" encoding="UTF-8"?>
<svg width="26px" height="26px" viewBox="0 0 26 26" version="1.1" xmlns="http://www.w3.org/2000/svg" xmlns:xlink="http://www.w3.org/1999/xlink">
    <!-- Generator: Sketch 50.2 (55047) - http://www.bohemiancoding.com/sketch -->
    <title>Instagram</title>
    <desc>Created with Sketch.</desc>
    <defs>
        <radialGradient cx="0%" cy="100%" fx="0%" fy="100%" r="180.321532%" gradientTransform="translate(0.000000,1.000000),rotate(-45.858773),scale(1.000000,1.764781),translate(-0.000000,-1.000000)" id="radialGradient-1">
            <stop stop-color="#BD61DA" offset="0%"></stop>
            <stop stop-color="#577DFF" offset="100%"></stop>
        </radialGradient>
    </defs>
    <g id="@tomgraham.me" stroke="none" stroke-width="1" fill="none" fill-rule="evenodd">
        <g id="Desktop-HD" transform="translate(-287.000000, -842.000000)">
            <g id="Social" transform="translate(184.000000, 823.000000)">
                <g id="Group" transform="translate(84.000000, 0.000000)">
                    <g id="Instagram" transform="translate(20.000000, 20.000000)">
                        <rect id="Rectangle-12" fill="#FFFFFF" x="0" y="0" width="24" height="24" rx="8"></rect>
                        <path d="M7.05621067,0.0759851138 C8.33611988,0.0175824382 8.74477713,0.00379 12.0037786,0.00379 C15.2628033,0.00379 15.6714139,0.0175824382 16.9513465,0.0759851138 C18.2286277,0.134271562 19.1009262,0.337111623 19.8642337,0.633777895 C20.6533583,0.94042207 21.322561,1.35073079 21.9897168,2.01786324 C22.6568259,2.68499617 23.0671112,3.35422165 23.3738021,4.14332346 C23.6704446,4.90663143 23.873308,5.77892991 23.9315482,7.05621067 C23.9899742,8.33611988 24.00379,8.74477713 24.00379,12.0037786 C24.00379,15.2628033 23.9899742,15.6714139 23.9315482,16.9513465 C23.8733084,18.2286277 23.670445,19.1009262 23.3738021,19.8642337 C23.0671112,20.6533583 22.6568259,21.322561 21.9897168,21.9897168 C21.322561,22.6568259 20.6533588,23.0671112 19.8642337,23.3738021 C19.1009257,23.6704446 18.2286272,23.873308 16.9513465,23.9315482 C15.6714139,23.9899742 15.2628033,24.00379 12.0037786,24.00379 C8.74477713,24.00379 8.33611988,23.9899742 7.05621067,23.9315482 C5.77892943,23.8733084 4.90663095,23.670445 4.14332346,23.3738021 C3.35422165,23.0671112 2.68499569,22.6568259 2.01786324,21.9897168 C1.35073079,21.322561 0.94042207,20.6533121 0.633777895,19.8642337 C0.337111623,19.1009257 0.134271562,18.2286272 0.0759851138,16.9513465 C0.0175824382,15.6714139 0.00379,15.2628033 0.00379,12.0037786 C0.00379,8.74475379 0.0175824382,8.33611988 0.0759855902,7.05621067 C0.134272039,5.77892943 0.3371121,4.90663095 0.633778371,4.14332346 C0.940422547,3.35422165 1.35073032,2.68499569 2.01786324,2.01786324 C2.68499617,1.35073079 3.35422165,0.94042207 4.14332346,0.633777895 C4.90663143,0.337111623 5.77892991,0.134271562 7.05621067,0.0759851138 Z M12,5.83977381 C8.59779571,5.83977381 5.83977381,8.59779571 5.83977381,12 C5.83977381,15.4022043 8.59779571,18.1602029 12,18.1602029 C15.4022043,18.1602029 18.1602029,15.4022043 18.1602029,12 C18.1602029,8.59779571 15.4022043,5.83977381 12,5.83977381 Z M12,15.9987443 C9.79155048,15.9987443 8.00125571,14.2084262 8.00125571,12 C8.00125571,9.79155048 9.79155048,8.00125571 12,8.00125571 C14.2084262,8.00125571 15.9987443,9.79155048 15.9987443,12 C15.9987443,14.2084262 14.2084262,15.9987443 12,15.9987443 Z M18.4035995,7.03594667 C19.1986389,7.03594667 19.8431457,6.39143988 19.8431457,5.59640048 C19.8431457,4.80136107 19.1986389,4.15685429 18.4035995,4.15685429 C17.6085601,4.15685429 16.9640533,4.80136107 16.9640533,5.59640048 C16.9640533,6.39143988 17.6085601,7.03594667 18.4035995,7.03594667 Z" stroke-opacity="0.04" stroke="#000000" fill="url(#radialGradient-1)" fill-rule="nonzero"></path>
                    </g>
                </g>
            </g>
        </g>
    </g>
</svg>