<?xml version="1.0" encoding="UTF-8"?>
<svg width="28px" height="28px" viewBox="0 0 28 28" version="1.1" xmlns="http://www.w3.org/2000/svg" xmlns:xlink="http://www.w3.org/1999/xlink">
    <!-- Generator: Sketch 50.2 (55047) - http://www.bohemiancoding.com/sketch -->
    <title>Tasklogue</title>
    <desc>Created with Sketch.</desc>
    <defs></defs>
    <g id="@tomgraham.me" stroke="none" stroke-width="1" fill="none" fill-rule="evenodd">
        <g id="Desktop-HD" transform="translate(-622.000000, -841.000000)">
            <g id="Social" transform="translate(184.000000, 823.000000)">
                <g id="Group" transform="translate(420.000000, 0.000000)">
                    <g id="Tasklogue" transform="translate(19.000000, 19.000000)">
                        <circle id="Mask" fill="#897EE6" cx="13" cy="13" r="12"></circle>
                        <path d="M13.0114,11.6035151 L18.031308,6.58988206 C18.4266557,6.19502848 19.0672405,6.1954291 19.462094,6.59077686 C19.8569476,6.98612463 19.856547,7.62670938 19.4611992,8.02156296 L13.7258558,13.7497372 C13.3305939,14.1443147 12.6904156,14.1441034 12.2955104,13.7491982 L9.90333703,11.3570248 C9.50823629,10.9619241 9.50823629,10.3213392 9.90333703,9.92623844 C10.2984378,9.5311377 10.9390227,9.5311377 11.3341234,9.92623844 L13.0114,11.6035151 Z M7.42124583,-0.25 L18.5787542,-0.25 C20.9692185,-0.25 22.043032,-0.0426370333 23.1563476,0.552770659 C24.1433175,1.08060794 24.9193921,1.85668247 25.4472293,2.84365237 C26.042637,3.95696796 26.25,5.03078153 26.25,7.42124583 L26.25,18.5787542 C26.25,20.9692185 26.042637,22.043032 25.4472293,23.1563476 C24.9193921,24.1433175 24.1433175,24.9193921 23.1563476,25.4472293 C22.043032,26.042637 20.9692185,26.25 18.5787542,26.25 L7.42124583,26.25 C5.03078153,26.25 3.95696796,26.042637 2.84365237,25.4472293 C1.85668247,24.9193921 1.08060794,24.1433175 0.552770659,23.1563476 C-0.0426370333,22.043032 -0.25,20.9692185 -0.25,18.5787542 L-0.25,7.42124583 C-0.25,5.03078153 -0.0426370333,3.95696796 0.552770659,2.84365237 C1.08060794,1.85668247 1.85668247,1.08060794 2.84365237,0.552770659 C3.95696796,-0.0426370333 5.03078153,-0.25 7.42124583,-0.25 Z M13,24.0911458 C19.1254707,24.0911458 24.0911458,19.1254707 24.0911458,13 C24.0911458,6.8745293 19.1254707,1.90885417 13,1.90885417 C6.8745293,1.90885417 1.90885417,6.8745293 1.90885417,13 C1.90885417,19.1254707 6.8745293,24.0911458 13,24.0911458 Z" stroke-opacity="0.0404495018" stroke="#000000" stroke-width="0.5" fill="#FFFFFF"></path>
                    </g>
                </g>
            </g>
        </g>
    </g>
</svg>