<?xml version="1.0" encoding="UTF-8"?>
<svg width="24px" height="24px" viewBox="0 0 24 24" version="1.1" xmlns="http://www.w3.org/2000/svg" xmlns:xlink="http://www.w3.org/1999/xlink">
    <!-- Generator: Sketch 49.3 (51167) - http://www.bohemiancoding.com/sketch -->
    <title>Tasklogue</title>
    <desc>Created with Sketch.</desc>
    <defs></defs>
    <g id="@tomgraham.me" stroke="none" stroke-width="1" fill="none" fill-rule="evenodd">
        <g id="Desktop-HD" transform="translate(-204.000000, -843.000000)">
            <g id="Group" transform="translate(184.000000, 823.000000)">
                <g id="Tasklogue" transform="translate(20.000000, 20.000000)">
                    <circle id="Mask" fill="#FFFFFF" cx="12" cy="12" r="10.5"></circle>
                    <path d="M12.0104211,11.037192 L16.8073607,6.24624856 C17.0821197,5.97183295 17.5273138,5.97211137 17.8017294,6.24687043 C18.076145,6.5216295 18.0758666,6.96682354 17.8011075,7.24123915 L12.5069837,12.5287453 C12.2322769,12.8029764 11.787349,12.8028577 11.5128804,12.528389 L9.30472037,10.320229 C9.03013297,10.0456416 9.03013297,9.60044752 9.30472037,9.32586013 C9.57930776,9.05127274 10.0245019,9.05127274 10.2990893,9.32586013 L12.0104211,11.037192 Z M6.85038077,-2.76763582e-16 L17.1496192,2.76763582e-16 C19.5316459,-1.60807611e-16 20.3954263,0.24801843 21.2662596,0.713745193 C22.1370929,1.17947196 22.820528,1.86290705 23.2862548,2.73374039 C23.7519816,3.60457372 24,4.46835414 24,6.85038077 L24,17.1496192 C24,19.5316459 23.7519816,20.3954263 23.2862548,21.2662596 C22.820528,22.1370929 22.1370929,22.820528 21.2662596,23.2862548 C20.3954263,23.7519816 19.5316459,24 17.1496192,24 L6.85038077,24 C4.46835414,24 3.60457372,23.7519816 2.73374039,23.2862548 C1.86290705,22.820528 1.17947196,22.1370929 0.713745193,21.2662596 C0.24801843,20.3954263 1.07205074e-16,19.5316459 -1.84509055e-16,17.1496192 L1.84509055e-16,6.85038077 C-1.07205074e-16,4.46835414 0.24801843,3.60457372 0.713745193,2.73374039 C1.17947196,1.86290705 1.86290705,1.17947196 2.73374039,0.713745193 C3.60457372,0.24801843 4.46835414,1.60807611e-16 6.85038077,-2.76763582e-16 Z M12,22.46875 C17.781731,22.46875 22.46875,17.781731 22.46875,12 C22.46875,6.21826903 17.781731,1.53125 12,1.53125 C6.21826903,1.53125 1.53125,6.21826903 1.53125,12 C1.53125,17.781731 6.21826903,22.46875 12,22.46875 Z" fill="#897EE6"></path>
                </g>
            </g>
        </g>
    </g>
</svg>