<?xml version="1.0" encoding="UTF-8"?>
<svg width="27px" height="24px" viewBox="0 0 27 24" version="1.1" xmlns="http://www.w3.org/2000/svg" xmlns:xlink="http://www.w3.org/1999/xlink">
    <!-- Generator: Sketch 50.2 (55047) - http://www.bohemiancoding.com/sketch -->
    <title>Twitter</title>
    <desc>Created with Sketch.</desc>
    <defs></defs>
    <g id="@tomgraham.me" stroke="none" stroke-width="1" fill="none" fill-rule="evenodd" stroke-linecap="round" stroke-linejoin="round" stroke-opacity="0.04">
        <g id="Desktop-HD" transform="translate(-371.000000, -843.000000)" fill="#1DA1F2" fill-rule="nonzero" stroke="#000000">
            <g id="Social" transform="translate(184.000000, 823.000000)">
                <g id="Group" transform="translate(168.000000, 0.000000)">
                    <path d="M42.3435504,27.1968586 C42.3435504,26.9549738 42.3435504,26.713089 42.3324819,26.4827225 C43.3729246,25.6994764 44.2805449,24.7204188 45,23.6031414 C44.0481056,24.0408377 43.0187314,24.3403141 41.9340145,24.478534 C43.0408685,23.7874346 43.8820775,22.704712 44.2805449,21.4031414 C43.2511707,22.0366492 42.1111111,22.4973822 40.8935717,22.7507853 C39.9195402,21.6680628 38.5359728,21 36.9974457,21 C34.0532141,21 31.6624095,23.4879581 31.6624095,26.5518325 C31.6624095,26.9895288 31.7066837,27.4157068 31.8063006,27.8188482 C27.3678161,27.5884817 23.4384845,25.3769634 20.804172,22.0136126 C20.3503619,22.8314136 20.0847169,23.7874346 20.0847169,24.8010471 C20.0847169,26.7246073 21.0255428,28.4293194 22.464453,29.4198953 C21.5900383,29.3968586 20.7709664,29.1434555 20.0515113,28.7287958 C20.0515113,28.7518325 20.0515113,28.7748691 20.0515113,28.7979058 C20.0515113,31.4931937 21.8888889,33.7277487 24.3350362,34.2460733 C23.8922946,34.3727749 23.4163474,34.4418848 22.9293316,34.4418848 C22.5862069,34.4418848 22.2541507,34.4073298 21.9220945,34.3382199 C22.5972754,36.5497382 24.5674755,38.1507853 26.9029374,38.1968586 C25.0766284,39.6827225 22.7743721,40.5696335 20.2728821,40.5696335 C19.841209,40.5696335 19.4206045,40.5465969 19,40.4890052 C21.3354619,42.078534 24.146871,43 27.1575138,43 C36.9753086,43 42.3435504,34.5340314 42.3435504,27.1968586 Z" id="Twitter"></path>
                </g>
            </g>
        </g>
    </g>
</svg>