<?xml version="1.0" encoding="UTF-8"?>
<svg width="24px" height="20px" viewBox="0 0 24 20" version="1.1" xmlns="http://www.w3.org/2000/svg" xmlns:xlink="http://www.w3.org/1999/xlink">
    <!-- Generator: Sketch 49.3 (51167) - http://www.bohemiancoding.com/sketch -->
    <title>Twitter</title>
    <desc>Created with Sketch.</desc>
    <defs></defs>
    <g id="@tomgraham.me" stroke="none" stroke-width="1" fill="none" fill-rule="evenodd">
        <g id="Desktop-HD" transform="translate(-540.000000, -845.000000)" fill="#1DA1F2" fill-rule="nonzero">
            <g id="Group" transform="translate(520.000000, 823.000000)">
                <path d="M27.5300128,42 C36.5925926,42 41.5478927,34.3036649 41.5478927,27.6335079 C41.5478927,27.4136126 41.5478927,27.1937173 41.5376756,26.9842932 C42.4980843,26.2722513 43.3358876,25.382199 44,24.3664921 C43.1213282,24.7643979 42.1711367,25.0366492 41.1698595,25.1623037 C42.1915709,24.5340314 42.9680715,23.5497382 43.3358876,22.3664921 C42.385696,22.9424084 41.3333333,23.3612565 40.2094508,23.591623 C39.3103448,22.6073298 38.0332056,22 36.6130268,22 C33.8952746,22 31.688378,24.2617801 31.688378,27.0471204 C31.688378,27.4450262 31.7292465,27.8324607 31.8212005,28.1989529 C27.7241379,27.9895288 24.0970626,25.9790576 21.6653895,22.921466 C21.2464879,23.6649215 21.0012771,24.5340314 21.0012771,25.4554974 C21.0012771,27.2041885 21.8697318,28.7539267 23.1979566,29.6544503 C22.3908046,29.6335079 21.6347382,29.4031414 20.9706258,29.026178 C20.9706258,29.0471204 20.9706258,29.0680628 20.9706258,29.0890052 C20.9706258,31.539267 22.6666667,33.5706806 24.9246488,34.0418848 C24.5159642,34.1570681 24.0766284,34.2198953 23.6270754,34.2198953 C23.3103448,34.2198953 23.0038314,34.1884817 22.697318,34.1256545 C23.3205619,36.1361257 25.1392082,37.591623 27.2950192,37.6335079 C25.6091954,38.9842932 23.4840358,39.7905759 21.1749681,39.7905759 C20.7765006,39.7905759 20.3882503,39.7696335 20,39.7172775 C22.155811,41.1623037 24.7509579,42 27.5300128,42" id="Twitter"></path>
            </g>
        </g>
    </g>
</svg>